<?xml version="1.0" standalone="no"?>
<!DOCTYPE svg PUBLIC "-//W3C//DTD SVG 20010904//EN"
 "http://www.w3.org/TR/2001/REC-SVG-20010904/DTD/svg10.dtd">
<svg version="1.0" xmlns="http://www.w3.org/2000/svg"
 width="64.000000pt" height="64.000000pt" viewBox="0 0 64.000000 64.000000"
 preserveAspectRatio="xMidYMid meet">

<g transform="translate(0.000000,64.000000) scale(0.100000,-0.100000)"
fill="#000000" stroke="none">
<path d="M0 531 l0 -110 32 10 c18 5 34 9 35 9 2 0 3 9 3 20 0 15 -9 22 -30
27 -25 4 -30 10 -30 34 l0 28 83 3 c65 2 82 6 82 18 0 8 -10 16 -22 18 -17 3
-23 10 -23 28 0 23 -3 24 -65 24 l-65 0 0 -109z"/>
<path d="M510 616 c0 -21 -6 -25 -32 -28 -60 -6 -29 -23 47 -26 l75 -3 0 -28
c0 -21 -6 -30 -21 -34 -27 -7 -20 -30 12 -37 19 -5 24 -12 24 -35 0 -23 -5
-31 -22 -33 -26 -4 -28 -17 -8 -52 8 -14 14 -49 15 -78 0 -53 0 -53 -22 -38
-29 21 -83 20 -118 0 -68 -41 -78 -130 -21 -188 29 -29 37 -31 116 -35 l85 -3
0 321 0 321 -65 0 c-62 0 -65 -1 -65 -24z m30 -450 c0 -18 6 -25 23 -28 28 -4
29 -32 0 -36 -14 -2 -23 -11 -25 -25 -4 -29 -32 -29 -36 0 -2 14 -11 23 -25
25 -29 4 -28 32 1 36 16 3 22 10 22 28 0 17 5 24 20 24 15 0 20 -7 20 -24z"/>
<path d="M144 400 l-41 -80 48 0 c37 0 51 -4 58 -19 6 -10 29 -26 53 -36 54
-21 101 -13 150 26 29 22 47 29 83 29 l45 0 -40 80 -40 80 -138 0 -137 0 -41
-80z"/>
<path d="M0 178 l0 -178 45 0 c43 0 45 1 45 29 0 24 5 30 25 33 48 6 25 23
-37 28 -63 5 -63 5 -66 38 -2 22 2 34 12 38 12 5 16 22 16 76 0 38 4 78 10 88
8 15 5 18 -20 22 l-30 5 0 -179z"/>
</g>
</svg>
